<svg width="22" height="12" fill="none" xmlns="http://www.w3.org/2000/svg"><path d="M8.29878 12l-1.9624-.5107.7998-2.89745C5.93899 8.16352 4.82634 7.5393 3.84654 6.7463l-2.188 2.12357L.220528 7.47486 2.40955 5.35228C1.17386 3.91662.343585 2.19431 0 .353927L2 0c.77134 4.14262 4.50711 7.28557 9 7.28557 4.4919 0 8.2287-3.14295 9-7.28557l2 .352941c-.3431 1.840639-1.173 3.563299-2.4085 4.999339l2.188 2.12258-1.438 1.39501-2.188-2.12357c-.9798.793-2.0925 1.41722-3.2897 1.84555l.7998 2.89845L13.7012 12l-.8008-2.89845c-1.2578.20908-2.543.20908-3.8008 0L8.29878 12z" fill="#1F1E25"/></svg>