<svg width="151" height="31" fill="none" xmlns="http://www.w3.org/2000/svg"><path d="M52.1 15h-3.02V3.24h-3.5c-.08.61333-.1667 1.28-.26 2-.08.72-.1733 1.45333-.28 2.2-.0933.73333-.1933 1.43333-.3 2.1-.1067.6533-.2133 1.2333-.32 1.74-.1733.8267-.4067 1.5333-.7 2.12-.28.5867-.6733 1.0333-1.18 1.34-.4933.3067-1.14.46-1.94.46-.52 0-1-.0733-1.44-.22V12.5c.1733.0533.34.1.5.14.1733.04.36.06.56.06.3867 0 .68-.2.88-.6.2133-.4133.4267-1.18.64-2.3.08-.42667.1933-1.09333.34-2 .1467-.90667.3067-1.96667.48-3.18.1867-1.22667.36-2.52667.52-3.900001h9.02V15zM55.7023.719999h2.72V7.62c0 .33333-.0066.70667-.02 1.12-.0133.41333-.0266.82-.04 1.22-.0133.3867-.0266.7267-.04 1.02-.0133.28-.0266.4733-.04.58h.06l6.6-10.840001h3.62V15h-2.7V8.14c0-.36.0067-.75333.02-1.18.0134-.44.0267-.86.04-1.26.0267-.4.0467-.74667.06-1.04.0267-.30667.0467-.50667.06-.6h-.08L59.3423 15h-3.64V.719999zm25.4849 0V3.22h-6V15h-3.02V.719999h9.02zM90.7119 15l-1.04-3.4h-5.2l-1.04 3.4h-3.26l5.04-14.34h3.7l5.06 14.34h-3.26zm-1.76-5.94l-1.04-3.32c-.0667-.22667-.1534-.51333-.26-.86-.1067-.34667-.2134-.7-.32-1.06-.1067-.36-.1934-.67333-.26-.94-.0667.26667-.16.6-.28 1-.1067.38667-.2134.76-.32 1.12-.0934.34667-.1667.59333-.22.74l-1.02 3.32h3.72zM101.503 15V.719999h9.02V3.22h-6V6.2h1.2c1.347 0 2.447.18667 3.3.56.867.37333 1.507.88667 1.92 1.54.413.65333.62 1.4.62 2.24 0 1.4133-.473 2.5133-1.42 3.3-.933.7733-2.427 1.16-4.48 1.16h-4.16zm3.02-2.48h1.02c.92 0 1.64-.1467 2.16-.44.533-.2933.8-.8067.8-1.54 0-.76-.287-1.26-.86-1.5s-1.353-.36-2.34-.36h-.78v3.84zm13.974-8.66c1.467 0 2.587.32 3.36.96.787.62667 1.18 1.59333 1.18 2.9V15h-2.08l-.58-1.48h-.08c-.467.5867-.96 1.0133-1.48 1.28-.52.2667-1.233.4-2.14.4-.973 0-1.78-.28-2.42-.84-.64-.5733-.96-1.4467-.96-2.62 0-1.16.407-2.01333 1.22-2.56.813-.56 2.033-.86667 3.66-.92l1.9-.06v-.48c0-.57333-.153-.99333-.46-1.26-.293-.26667-.707-.4-1.24-.4s-1.053.08-1.56.24c-.507.14667-1.013.33333-1.52.56l-.98-2.02c.587-.30667 1.233-.54667 1.94-.72.72-.17333 1.467-.26 2.24-.26zm1.58 6.08l-1.16.04c-.96.0267-1.627.2-2 .52s-.56.74-.56 1.26c0 .4533.133.78.4.98.267.1867.613.28 1.04.28.64 0 1.18-.1867 1.62-.56.44-.3867.66-.9267.66-1.62v-.9zm8.99-5.86v4.2h4.16v-4.2h2.98V15h-2.98v-4.5h-4.16V15h-2.98V4.08h2.98zm17.423 0h3.28l-4.32 5.24 4.7 5.68h-3.38l-4.46-5.54V15h-2.98V4.08h2.98v5.3l4.18-5.3zM43.9219 21.6602h1.084V28h-1.084v-4.623L40.998 28h-1.0839v-6.3398h1.0839v4.6289l2.9239-4.6289zM51.9258 28h-1.084v-2.707h-2.9121V28h-1.0899v-6.3398h1.0899v2.748h2.9121v-2.748h1.084V28zm6.457-5.4609h-2.1269V28h-1.084v-5.4609h-2.086v-.8789h5.2969v.8789zm3.2168 5.5781c-.8594 0-1.5586-.2813-2.0976-.8438-.5391-.5664-.8086-1.3222-.8086-2.2675v-.1993c0-.6289.1191-1.1894.3574-1.6816.2422-.4961.5781-.8828 1.0078-1.1602.4336-.2812.9023-.4218 1.4062-.4218.8243 0 1.4649.2715 1.9219.8144.4571.543.6856 1.3203.6856 2.3321v.4511h-4.295c.0157.625.1973 1.1309.545 1.5176.3515.3828.7968.5742 1.3359.5742.3828 0 .707-.0781.9727-.2344.2656-.1562.498-.3632.6972-.621l.6621.5156c-.5312.8164-1.3281 1.2246-2.3906 1.2246zm-.1348-5.6836c-.4375 0-.8046.1602-1.1015.4805-.2969.3164-.4805.7617-.5508 1.3359h3.1758v-.082c-.0313-.5508-.1797-.9766-.4453-1.2774-.2657-.3047-.625-.457-1.0782-.457zm9.2227 2.4668c0 .9648-.2207 1.7422-.6621 2.332-.4414.5899-1.0391.8848-1.793.8848-.7695 0-1.375-.2442-1.8164-.7324v3.0527h-1.084v-8.7773h.9903l.0527.7031c.4414-.5469 1.0547-.8203 1.8398-.8203.7618 0 1.3633.2871 1.8047.8613.4453.5742.668 1.373.668 2.3965v.0996zm-1.084-.1231c0-.7148-.1523-1.2793-.457-1.6933-.3047-.4141-.7227-.6211-1.2539-.6211-.6563 0-1.1485.291-1.4766.873v3.0293c.3242.5782.8203.8672 1.4883.8672.5195 0 .9316-.2051 1.2363-.6152.3086-.4141.4629-1.0274.4629-1.8399zM77.25 28h-1.084v-2.707h-2.9121V28h-1.0898v-6.3398h1.0898v2.748h2.9121v-2.748h1.084V28zm4.377.1172c-.8594 0-1.5586-.2813-2.0977-.8438-.5391-.5664-.8086-1.3222-.8086-2.2675v-.1993c0-.6289.1191-1.1894.3574-1.6816.2422-.4961.5781-.8828 1.0078-1.1602.4336-.2812.9024-.4218 1.4063-.4218.8242 0 1.4648.2715 1.9219.8144.457.543.6855 1.3203.6855 2.3321v.4511h-4.2949c.0156.625.1973 1.1309.5449 1.5176.3516.3828.7969.5742 1.3359.5742.3829 0 .7071-.0781.9727-.2344.2656-.1562.498-.3632.6973-.621l.6621.5156c-.5313.8164-1.3281 1.2246-2.3906 1.2246zm-.1348-5.6836c-.4375 0-.8047.1602-1.1016.4805-.2968.3164-.4804.7617-.5508 1.3359h3.1758v-.082c-.0312-.5508-.1797-.9766-.4453-1.2774-.2656-.3047-.625-.457-1.0781-.457zM90 22.5391h-2.127V28h-1.0839v-5.4609h-2.086v-.8789H90v.8789zm3.3105 2.2793h-2.8593v-.8848h2.8593v.8848zm3.8438-2.795c.7969 0 1.4336.2676 1.9102.8028.4804.5312.7207 1.2324.7207 2.1035v.0996c0 .5977-.1153 1.1328-.3457 1.6055-.2305.4687-.5625.834-.9961 1.0957-.4297.2578-.9258.3867-1.4883.3867-.8516 0-1.5371-.2832-2.0567-.8496-.5195-.5703-.7793-1.334-.7793-2.291v-.5274c0-1.332.2461-2.3906.7383-3.1758.4961-.7851 1.2266-1.2636 2.1914-1.4355.5469-.0977.916-.2168 1.1074-.3574.1915-.1407.2872-.334.2872-.5801h.8906c0 .4883-.1113.8691-.334 1.1426-.2188.2734-.5703.4668-1.0547.58l-.8086.1817c-.6445.1523-1.1289.4101-1.4531.7734-.3203.3594-.5293.8399-.627 1.4414.5743-.664 1.2735-.9961 2.0977-.9961zm-.2109.8907c-.5313 0-.9532.1797-1.2657.539-.3125.3555-.4687.8496-.4687 1.4824v.0938c0 .6797.1562 1.2187.4687 1.6172.3164.3945.7422.5918 1.2774.5918.539 0 .9648-.1992 1.2773-.5977.3125-.3984.4688-.9804.4688-1.7461 0-.5976-.1582-1.0761-.4746-1.4355-.3125-.3633-.7403-.5449-1.2832-.5449zM104.918 28c-.063-.125-.113-.3477-.152-.668-.504.5235-1.106.7852-1.805.7852-.625 0-1.139-.1758-1.541-.5274-.399-.3554-.598-.8046-.598-1.3476 0-.6602.25-1.1719.75-1.5352.504-.3672 1.211-.5508 2.121-.5508h1.055v-.498c0-.3789-.113-.6797-.34-.9023-.226-.2266-.56-.3399-1.002-.3399-.386 0-.711.0977-.972.293-.262.1953-.393.4316-.393.709h-1.09c0-.3164.111-.6211.334-.9141.227-.2969.531-.5312.914-.7031.387-.1719.811-.2578 1.272-.2578.73 0 1.302.1836 1.717.5508.414.3632.628.8652.644 1.5058v2.918c0 .582.074 1.0449.223 1.3886V28h-1.137zm-1.799-.8262c.34 0 .662-.0879.967-.2636.305-.1758.525-.4043.662-.6856v-1.3008h-.85c-1.328 0-1.992.3887-1.992 1.166 0 .3399.114.6055.34.7969.227.1914.518.2871.873.2871zm9.592.8262h-1.084v-2.707h-2.912V28h-1.09v-6.3398h1.09v2.748h2.912v-2.748h1.084V28zm3.721-2.7012h-.791V28h-1.09v-6.3398h1.09v2.6836h.709l2.132-2.6836h1.313l-2.508 3.0468L120.006 28h-1.377l-2.197-2.7012z" fill="#1F1E25"/><path d="M17.875 1H14.75L1 24.0488h4.0625l1.875-3.2927L17.875 1z" fill="#2C36F2"/><path d="M2.875 28h26.25L17.875 7.58537 16 10.878l5.625 9.8781 1.875 3.2927H1L2.875 28z" fill="#2C36F2"/><path d="M23.5 24.0488l-1.875-3.2927H6.9375l-1.875 3.2927H23.5z" fill="#2C36F2"/><path d="M29.125 28L31 24.0488 17.875 1 6.9375 20.7561h3.4375L16 10.878l1.875-3.29263L29.125 28z" fill="#2C36F2"/><path d="M16 10.878l-5.625 9.8781h11.25L16 10.878z" fill="#2C36F2"/><path d="M29.125 28H2.875L1 24.0488M29.125 28L31 24.0488 17.875 1m11.25 27L17.875 7.58537 16 10.878M17.875 1H14.75L1 24.0488M17.875 1L6.9375 20.7561M1 24.0488h4.0625M16 10.878l-5.625 9.8781M16 10.878l5.625 9.8781m-11.25 0h11.25m-11.25 0H6.9375m14.6875 0l1.875 3.2927H5.0625m1.875-3.2927l-1.875 3.2927" stroke="#F6F7FF"/></svg>