<svg width="31" height="35" fill="none" xmlns="http://www.w3.org/2000/svg"><path d="M25.7531 24.3345L15.5 34 5.24689 24.3345c-2.02784-1.9117-3.40881-4.3473-3.96828-6.9988-.559474-2.6515-.27232-5.3999.82516-7.89761C3.20125 6.94041 5.05975 4.8056 7.44425 3.30364 9.82876 1.80167 12.6322 1 15.5 1s5.6712.80167 8.0557 2.30364c2.3846 1.50196 4.2431 3.63677 5.3405 6.13445 1.0975 2.49771 1.3847 5.24611.8252 7.89761-.5595 2.6515-1.9405 5.0871-3.9683 6.9988z" fill="#2C36F2"/><path d="M16.3434 8.61538h-1.4057L8.75247 18.728h1.82743l.8435-1.4447 4.92-8.66792z" fill="#2C36F2"/><path d="M9.59591 20.4615H21.4041l-5.0607-8.9568-.8434 1.4446 2.5303 4.334.8435 1.4447H8.75247l.84344 1.7335z" fill="#2C36F2"/><path d="M18.8738 18.728l-.8435-1.4447H11.4234l-.8435 1.4447h8.2939z" fill="#2C36F2"/><path d="M21.4041 20.4615l.8434-1.7335-5.9041-10.11262-4.92 8.66792h1.5463l2.5303-4.334.8434-1.4446 5.0607 8.9568z" fill="#2C36F2"/><path d="M15.5 12.9493l-2.5303 4.334h5.0606L15.5 12.9493z" fill="#2C36F2"/><path d="M21.4041 20.4615H9.59591l-.84344-1.7335m12.65163 1.7335l.8434-1.7335-5.9041-10.11262m5.0607 11.84612l-5.0607-8.9568-.8434 1.4446m.8434-4.33392h-1.4057L8.75247 18.728M16.3434 8.61538l-4.92 8.66792M8.75247 18.728h1.82743M15.5 12.9493l-2.5303 4.334m2.5303-4.334l2.5303 4.334m-5.0606 0h5.0606m-5.0606 0h-1.5463m6.6069 0l.8435 1.4447h-8.2939m.8435-1.4447l-.8435 1.4447m15.1732 5.6065L15.5 34 5.24689 24.3345c-2.02784-1.9117-3.40881-4.3473-3.96828-6.9988-.559474-2.6515-.27232-5.3999.82516-7.89761C3.20125 6.94041 5.05975 4.8056 7.44425 3.30364 9.82876 1.80167 12.6322 1 15.5 1s5.6712.80167 8.0557 2.30364c2.3846 1.50196 4.2431 3.63677 5.3405 6.13445 1.0975 2.49771 1.3847 5.24611.8252 7.89761-.5595 2.6515-1.9405 5.0871-3.9683 6.9988z" stroke="#F6F7FF" stroke-width=".5"/></svg>