<svg width="34" height="30" fill="none" xmlns="http://www.w3.org/2000/svg"><path d="M32.7022 4.39716L11.8788.0350432C10.9978-.149457 10.1246.413172 9.93822 1.28524l-.39561 2.51657L33.5692 8.83467l.3957-2.51656c.1863-.87175-.3817-1.73639-1.2627-1.92095zM23.9451 9.36838c-.2432-.86701-1.1586-1.37949-2.0342-1.13912l-3.953 1.08627L8.63885 7.3633l-1.0249 4.7934-6.4036 1.7593c-.875557.2405-1.393283 1.1465-1.1504479 2.0133L3.6687 28.8018c.24323.8667 1.15862 1.3795 2.03418 1.1388l20.70062-5.6864c.8755-.2408 1.3932-1.1465 1.1504-2.0136l-.6194-2.2098 2.3216.4859c.881.1848 1.7542-.3778 1.9406-1.2499l1.4689-6.8706-8.3627-1.7517-.3578-1.27612zm2.3906 6.54232l.512-2.395c.0769-.3586.4361-.5899.7983-.5142l2.4196.5071c.3626.0761.5963.4313.5198.7902l-.512 2.3951c-.0769.3586-.436.5902-.7983.5142l-2.4196-.5068c-.3629-.0764-.5966-.432-.5198-.7906zm-24.76512-.7101L22.2704 9.51455c.0266-.0071.0531-.01045.079-.01045.1166 0 .2561.07578.2969.22091l.7059 2.51719-21.2884 5.8477-.70583-2.5169c-.04423-.1579.05311-.3286.21261-.3724zm24.68522 7.3962c.0272.0977-.0013.1785-.0303.229-.0285.0505-.0837.1166-.1823.1434L5.34299 28.6556c-.02617.0071-.05305.0108-.07894.0108-.11667 0-.25617-.0761-.29695-.2212l-2.1049-7.5084 21.2884-5.848 2.1052 7.508z" fill="#565EF5"/><path d="M8.68804 23.1106c-.09933-.3535-.47217-.5623-.82934-.4643l-2.41752.6643c-.35683.098-.56805.4674-.46872.821l.67078 2.3926c.09934.3536.47217.5623.82934.464l2.41752-.664c.35717-.098.56806-.4674.46905-.8209l-.67111-2.3927z" fill="#565EF5"/></svg>