<svg width="16" height="16" fill="none" xmlns="http://www.w3.org/2000/svg"><path d="M8 .201874c2.1736 0 2.4448.007737 3.2976.046422.852.038686 1.432.167895 1.9424.359775.528.196522.9728.462679 1.4176.892089.4068.38677.7216.85463.9224 1.37101.1976.49285.332 1.05456.372 1.87856.0376.82478.048 1.08707.048 3.18923 0 2.10214-.008 2.36444-.048 3.18924-.04.824-.1744 1.3849-.372 1.8786-.2003.5166-.5151.9846-.9224 1.371-.4.3933-.8838.6977-1.4176.8921-.5096.1911-1.0904.321-1.9424.3597-.8528.0364-1.124.0465-3.2976.0465s-2.4448-.0078-3.2976-.0465c-.852-.0387-1.432-.1686-1.9424-.3597-.53414-.1939-1.01798-.4984-1.4176-.8921-.406875-.3867-.721655-.8546-.9224-1.371-.1984-.4929-.332-1.0546-.372-1.8786C.0104 10.3034 0 10.0411 0 7.93896 0 5.8368.00799995 5.57451.048 4.74973c.04-.82477.1736-1.38493.372-1.87856.200189-.5167.515043-.98468.9224-1.37101.39974-.39364.88354-.698097 1.4176-.892089.5104-.19188 1.0896-.321089 1.9424-.359775C5.5552.211932 5.8264.201874 8 .201874zM8 4.07042c-1.06087 0-2.07828.40758-2.82843 1.13307C4.42143 5.92898 4 6.91296 4 7.93896c0 1.026.42143 2.00998 1.17157 2.73544.75015.7255 1.76756 1.1331 2.82843 1.1331s2.0783-.4076 2.8284-1.1331C11.5786 9.94894 12 8.96496 12 7.93896s-.4214-2.00998-1.1716-2.73547C10.0783 4.478 9.06087 4.07042 8 4.07042zm5.2-.19343c0-.2565-.1054-.50249-.2929-.68387-.1875-.18137-.4419-.28326-.7071-.28326-.2652 0-.5196.10189-.7071.28326-.1875.18138-.2929.42737-.2929.68387 0 .2565.1054.5025.2929.68387.1875.18137.4419.28327.7071.28327.2652 0 .5196-.1019.7071-.28327.1875-.18137.2929-.42737.2929-.68387zM8 5.61784c.63652 0 1.24697.24454 1.69706.67984.45004.43529.70294 1.02568.70294 1.64128 0 .6156-.2529 1.20599-.70294 1.64129-.45009.43525-1.06054.67985-1.69706.67985s-1.24697-.2446-1.69706-.67985C5.85286 9.14495 5.6 8.55456 5.6 7.93896c0-.6156.25286-1.20599.70294-1.64128.45009-.4353 1.06054-.67984 1.69706-.67984z" fill="#1F1E25"/></svg>