<svg width="14" height="16" fill="none" xmlns="http://www.w3.org/2000/svg"><path d="M1.55556 10.4h1.55555v4h9.33329V1.6H3.11111v4H1.55556V.8c0-.212173.08194-.415656.2278-.565685C1.92922.0842854 2.12705 0 2.33333 0H13.2222c.2063 0 .4041.0842854.55.234315C13.9181.384344 14 .587827 14 .8v14.4c0 .2122-.0819.4157-.2278.5657-.1459.15-.3437.2343-.55.2343H2.33333c-.20628 0-.40411-.0843-.54997-.2343-.14586-.15-.2278-.3535-.2278-.5657v-4.8zm4.66666-3.2V4.8L10.1111 8l-3.88888 3.2V8.8H0V7.2h6.22222z" fill="#1F1E25"/></svg>