<svg width="116" height="19" fill="none" xmlns="http://www.w3.org/2000/svg"><path d="M37.48 16h-2.416V6.592h-2.8c-.064.49067-.1333 1.024-.208 1.6-.064.576-.1387 1.16267-.224 1.76-.0747.5867-.1547 1.1467-.24 1.68-.0853.5227-.1707.9867-.256 1.392-.1387.6613-.3253 1.2267-.56 1.696-.224.4693-.5387.8267-.944 1.072-.3947.2453-.912.368-1.552.368-.416 0-.8-.0587-1.152-.176V14c.1387.0427.272.08.4.112.1387.032.288.048.448.048.3093 0 .544-.16.704-.48.1707-.3307.3413-.944.512-1.84.064-.3413.1547-.8747.272-1.6.1173-.72533.2453-1.57333.384-2.544.1493-.98133.288-2.02133.416-3.12h7.216V16zm2.8819-11.424h2.176v5.52c0 .2667-.0054.5653-.016.896-.0107.3307-.0214.656-.032.976-.0107.3093-.0214.5813-.032.816-.0107.224-.0214.3787-.032.464h.048l5.28-8.672h2.896V16h-2.16v-5.488c0-.288.0053-.60267.016-.944.0106-.352.0213-.688.032-1.008.0213-.32.0373-.59733.048-.832.0213-.24533.0373-.40533.048-.48h-.064L43.2739 16h-2.912V4.576zm20.3879 0v2h-4.8V16h-2.416V4.576h7.216zM68.3695 16l-.832-2.72h-4.16l-.832 2.72h-2.608l4.032-11.472h2.96L70.9775 16h-2.608zm-1.408-4.752l-.832-2.656c-.0533-.18133-.1227-.41067-.208-.688-.0853-.27733-.1707-.56-.256-.848-.0853-.288-.1547-.53867-.208-.752-.0533.21333-.128.48-.224.8-.0853.30933-.1707.608-.256.896-.0747.27733-.1333.47467-.176.592l-.816 2.656h2.976zM77.0025 16V4.576h7.216v2h-4.8V8.96h.96c1.0773 0 1.9573.14933 2.64.448.6933.29867 1.2053.7093 1.536 1.232.3307.5227.496 1.12.496 1.792 0 1.1307-.3787 2.0107-1.136 2.64-.7467.6187-1.9413.928-3.584.928h-3.328zm2.416-1.984h.816c.736 0 1.312-.1173 1.728-.352.4267-.2347.64-.6453.64-1.232 0-.608-.2293-1.008-.688-1.2-.4587-.192-1.0827-.288-1.872-.288h-.624v3.072zm11.1791-6.928c1.1734 0 2.0694.256 2.688.768.6294.50133.944 1.27467.944 2.32V16h-1.664l-.464-1.184h-.064c-.3733.4693-.768.8107-1.184 1.024-.416.2133-.9866.32-1.712.32-.7786 0-1.424-.224-1.936-.672-.512-.4587-.768-1.1573-.768-2.096 0-.928.3254-1.6107.976-2.048.6507-.448 1.6267-.6933 2.928-.736l1.52-.048v-.384c0-.45867-.1226-.79467-.368-1.008-.2346-.21333-.5653-.32-.992-.32-.4266 0-.8426.064-1.248.192-.4053.11733-.8106.26667-1.216.448l-.784-1.616c.4694-.24533.9867-.43733 1.552-.576.576-.13867 1.1734-.208 1.792-.208zm1.264 4.864l-.928.032c-.768.0213-1.3013.16-1.6.416-.2986.256-.448.592-.448 1.008 0 .3627.1067.624.32.784.2134.1493.4907.224.832.224.512 0 .944-.1493 1.296-.448.352-.3093.528-.7413.528-1.296v-.72zm7.1923-4.688v3.36h3.3281v-3.36h2.384V16h-2.384v-3.6h-3.3281V16h-2.384V7.264h2.384zm13.9381 0h2.624l-3.456 4.192L115.92 16h-2.704l-3.568-4.432V16h-2.384V7.264h2.384v4.24l3.344-4.24z" fill="#1F1E25"/><path d="M11.125 1H9.25L1 15.5122h2.4375l1.125-2.0732L11.125 1z" fill="#2C36F2"/><path d="M2.125 18h15.75l-6.75-12.85366L10 7.21951l3.375 6.21949 1.125 2.0732H1L2.125 18z" fill="#2C36F2"/><path d="M14.5 15.5122l-1.125-2.0732H4.5625l-1.125 2.0732H14.5z" fill="#2C36F2"/><path d="M17.875 18L19 15.5122 11.125 1 4.5625 13.439H6.625L10 7.21951l1.125-2.07317L17.875 18z" fill="#2C36F2"/><path d="M10 7.21951L6.625 13.439h6.75L10 7.21951z" fill="#2C36F2"/><path d="M17.875 18H2.125L1 15.5122M17.875 18L19 15.5122 11.125 1m6.75 17l-6.75-12.85366L10 7.21951M11.125 1H9.25L1 15.5122M11.125 1L4.5625 13.439M1 15.5122h2.4375M10 7.21951L6.625 13.439M10 7.21951l3.375 6.21949m-6.75 0h6.75m-6.75 0H4.5625m8.8125 0l1.125 2.0732H3.4375m1.125-2.0732l-1.125 2.0732" stroke="#F6F7FF"/></svg>