<svg width="20" height="34" fill="none" xmlns="http://www.w3.org/2000/svg"><path d="M17.6746 0H2.3254C1.04663 0 0 1.03263 0 2.29646V31.7026C0 32.9664 1.04663 34 2.3254 34h15.3492C18.9534 34 20 32.9683 20 31.7035V2.29646C20 1.03263 18.9534 0 17.6746 0zM7.54476 1.65531h4.91044c.1555 0 .2814.12435.2814.2788 0 .15349-.1259.27783-.2814.27783H7.54476c-.15542 0-.28133-.12434-.28133-.27783 0-.15445.12591-.2788.28133-.2788zM10 32.8518c-.64234 0-1.1627-.5139-1.1627-1.1492S9.35766 30.5543 10 30.5543c.6423 0 1.1627.513 1.1627 1.1483 0 .6353-.5204 1.1492-1.1627 1.1492zm8.3819-3.1018H1.61814V3.64189H18.3819V29.75z" fill="#565EF5"/></svg>