<svg width="10" height="16" fill="none" xmlns="http://www.w3.org/2000/svg"><path d="M8.8373.098587H1.1627C.523313.098587 0 .56856 0 1.14376V14.5272c0 .5751.523313 1.0456 1.1627 1.0456h7.6746c.63939 0 1.1627-.4696 1.1627-1.0452V1.14376C10 .56856 9.47669.098587 8.8373.098587zM3.77238.851958h2.45524c.07771 0 .14067.056592.14067.126889 0 .069853-.06296.126443-.14067.126443H3.77238c-.07771 0-.14067-.05659-.14067-.126443 0-.070297.06296-.126889.14067-.126889zM5 15.0502c-.32117 0-.58135-.2339-.58135-.523 0-.2892.26018-.5226.58135-.5226s.58135.2334.58135.5226c0 .2891-.26018.523-.58135.523zm4.19093-1.4117H.809069V1.75609H9.19093V13.6385z" fill="#1F1E25"/></svg>