<svg width="16" height="17" fill="none" xmlns="http://www.w3.org/2000/svg"><path d="M15.9991 12.17v3.0397c.0001.2176-.0851.4272-.2386.5864-.1534.1592-.3635.2562-.588.2715-.3884.0258-.7057.0395-.9511.0395C6.36676 16.1071 0 9.9496 0 2.35306c0-.23726.0133326-.54414.0408866-.9198C.056639 1.21615.156952 1.01291.321585.864536.486218.716163.702915.633706.927949.633805H4.07089c.11025-.000108.2166.039421.2984.110909.08181.071488.13321.16983.14424.275926.02044.19771.03911.35502.05688.47451.17665 1.19224.53864 2.3518 1.07372 3.43938.08444.17192.02933.37737-.13066.48741L3.59536 6.74749c1.17278 2.64288 3.35052 4.74901 6.08321 5.88331l1.36883-1.8517c.0559-.0756.1376-.1299.2306-.1533.0931-.0234.1917-.0144.2787.0253 1.1244.5165 2.323.8657 3.5554 1.0358.1235.0172.2862.0361.4888.055.1096.0109.211.0607.2848.1398.0737.0791.1144.1818.1143.2883h-.0009z" fill="#1F1E25"/></svg>