<svg width="16" height="13" fill="none" xmlns="http://www.w3.org/2000/svg"><path d="M15.9992 1.62867c-.5992.25618-1.2347.42442-1.8854.49917.6858-.39643 1.1992-1.02032 1.4443-1.755425-.6437.370201-1.3493.629645-2.0848.769985-.494-.51086-1.1488-.849667-1.8627-.963745-.7138-.1140784-1.4466.002963-2.08449.332929-.63789.329966-1.14512.854366-1.44282 1.491686-.2977.63731-.3692 1.35183-.20338 2.03247-1.30526-.06323-2.58216-.39105-3.74782-.96217-1.16565-.57113-2.194-1.37279-3.01828-2.352953C.822049 1.20495.668725 1.75553.669545 2.31597c0 1.09998.579275 2.07176 1.459965 2.64072-.52118-.01586-1.0309-.15189-1.486653-.39675v.03944c.000157.73259.262456 1.44259.742423 2.0096.47997.56702 1.14807.95617 1.89101 1.10146-.48381.12672-.99112.14539-1.48351.05462.20947.63058.61774 1.18206 1.16765 1.57723.54991.39517 1.21393.61423 1.89907.62653-.68094.51688-1.46062.89898-2.29444 1.12438-.83383.2255-1.705462.2899-2.56506.1895 1.50055.9327 3.24733 1.4278 5.0314 1.4262 6.0385 0 9.3407-4.8346 9.3407-9.02743 0-.13655-.004-.27462-.0102-.40965.6427-.44897 1.1974-1.00514 1.6381-1.64239l-.0008-.00076z" fill="#1F1E25"/></svg>