<svg width="16" height="13" fill="none" xmlns="http://www.w3.org/2000/svg"><path d="M15.6344 2.09907C16 3.49936 16 6.42253 16 6.42253s0 2.92317-.3656 4.32347c-.2032.774-.7976 1.383-1.5504 1.5889-1.3672.374-6.084.374-6.084.374s-4.7144 0-6.084-.374c-.756-.209-1.3496-.8173-1.5504-1.5889C2e-8 9.3457 0 6.42253 0 6.42253s2e-8-2.92317.3656-4.32346C.5688 1.32506 1.1632.716065 1.916.510186 3.2856.136146 8 .136147 8 .136147s4.7168-.000001 6.084.374039c.756.209023 1.3496.817234 1.5504 1.588884zM6.4 9.17282l4.8-2.75029-4.8-2.75029v5.50058z" fill="#1F1E25"/></svg>